<?xml version="1.0" standalone="no"?>
<!DOCTYPE svg PUBLIC "-//W3C//DTD SVG 20010904//EN"
 "http://www.w3.org/TR/2001/REC-SVG-20010904/DTD/svg10.dtd">
<svg version="1.0" xmlns="http://www.w3.org/2000/svg"
 width="6664.000000pt" height="1183.000000pt" viewBox="0 0 6664.000000 1183.000000"
 preserveAspectRatio="xMidYMid meet">

<g transform="translate(0.000000,1183.000000) scale(0.100000,-0.100000)"
fill="#000000" stroke="none">
<path d="M18245 11809 c-514 -42 -948 -160 -1350 -368 -706 -363 -1157 -964
-1272 -1692 -22 -140 -25 -504 -5 -649 105 -758 521 -1278 1314 -1641 374
-171 743 -283 1617 -489 598 -141 850 -214 1063 -310 250 -111 396 -230 472
-385 35 -72 47 -135 47 -240 -1 -305 -199 -567 -542 -716 -523 -227 -1387
-188 -2089 94 -418 168 -784 402 -1128 724 -62 58 -114 104 -116 102 -2 -2
-209 -296 -460 -653 l-456 -650 27 -29 c62 -66 287 -256 417 -354 393 -294
859 -521 1367 -667 812 -232 1836 -267 2629 -90 696 156 1263 494 1609 958
234 314 383 689 435 1096 54 418 13 831 -115 1165 -216 562 -675 973 -1424
1273 -358 144 -678 236 -1463 423 -799 190 -1073 287 -1301 462 -60 47 -134
139 -162 205 -31 71 -41 162 -29 259 44 352 292 574 745 666 98 20 140 22 385
22 302 0 426 -12 692 -66 554 -112 1060 -353 1474 -702 l101 -85 466 625 466
626 -51 46 c-168 152 -442 350 -648 468 -529 304 -1119 485 -1815 558 -178 19
-739 28 -900 14z"/>
<path d="M63095 11813 c-1489 -95 -2541 -925 -2696 -2128 -17 -133 -14 -437 6
-590 31 -243 109 -495 212 -685 276 -512 766 -865 1578 -1135 288 -96 503
-154 1060 -286 664 -157 896 -223 1115 -316 257 -110 423 -243 496 -398 43
-90 58 -169 51 -275 -20 -319 -256 -584 -637 -718 -510 -179 -1281 -137 -1930
105 -431 161 -861 431 -1188 747 -96 94 -115 107 -126 95 -18 -18 -897 -1270
-903 -1285 -10 -27 326 -319 538 -466 418 -291 924 -514 1459 -642 805 -194
1770 -203 2500 -25 554 135 1018 384 1353 723 421 428 647 1009 647 1667 0
393 -64 685 -217 989 -97 192 -180 307 -343 471 -424 427 -1006 694 -2090 959
-808 197 -963 237 -1138 295 -544 180 -747 371 -729 685 22 389 325 648 835
715 131 17 415 20 582 5 708 -64 1395 -343 1887 -769 46 -39 87 -71 92 -71 5
0 172 219 372 488 200 268 408 547 463 621 l101 134 -50 45 c-100 89 -293 239
-410 318 -727 490 -1624 741 -2625 732 -118 -1 -237 -3 -265 -5z"/>
<path d="M23440 7765 l0 -3935 840 0 840 0 0 3935 0 3935 -840 0 -840 0 0
-3935z"/>
<path d="M26670 10965 l0 -735 1150 0 1150 0 0 -3200 0 -3200 845 0 845 0 0
3200 0 3200 1145 0 1145 0 0 735 0 735 -3140 0 -3140 0 0 -735z"/>
<path d="M34500 7765 l0 -3935 835 0 835 0 0 1395 0 1395 618 0 617 0 770
-1395 770 -1395 968 0 968 0 -12 22 c-7 12 -405 684 -886 1492 -480 808 -873
1472 -873 1476 0 4 36 16 80 28 365 98 730 318 1011 609 514 531 735 1341 598
2186 -82 508 -297 948 -634 1296 -196 202 -383 339 -636 465 -317 158 -655
251 -1039 286 -75 6 -792 10 -2052 10 l-1938 0 0 -3935z m3704 2441 c309 -61
552 -200 708 -405 64 -85 141 -243 170 -351 20 -75 23 -108 22 -280 0 -180 -2
-203 -27 -295 -104 -383 -400 -648 -835 -747 -96 -22 -108 -22 -1084 -25
l-988 -4 0 1059 c0 582 3 1062 7 1066 4 4 442 5 973 3 870 -3 974 -5 1054 -21z"/>
<path d="M44759 11673 c-6 -16 -685 -1778 -1509 -3918 -824 -2139 -1502 -3898
-1505 -3907 -7 -17 42 -18 943 -18 l950 0 30 77 c16 43 127 342 247 666 l218
587 1690 -2 1690 -3 246 -662 246 -663 951 0 951 0 -671 1743 c-370 958 -1052
2729 -1516 3934 l-845 2193 -1053 0 -1052 0 -11 -27z m1680 -3350 l608 -1678
-1220 -3 c-671 -1 -1222 0 -1224 2 -3 3 1166 3246 1213 3366 4 10 8 11 11 3 2
-6 278 -767 612 -1690z"/>
<path d="M51350 7765 l0 -3935 840 0 840 0 2 2560 3 2561 1870 -2560 1870
-2560 813 0 812 -1 0 3935 0 3935 -840 0 -840 0 -2 -2467 -3 -2466 -1819 2466
-1819 2467 -864 0 -863 0 0 -3935z"/>
<path d="M7089 6914 c-1372 -1356 -2633 -2605 -2804 -2775 l-310 -309 4303 0
4302 0 0 2775 0 2775 -1499 0 -1499 0 -2493 -2466z"/>
<path d="M22281 2375 c-61 -118 -111 -217 -111 -220 0 -3 50 -4 112 -3 l111 3
143 210 c79 116 143 213 144 218 0 4 -65 7 -144 7 l-144 0 -111 -215z"/>
<path d="M40677 2528 c-40 -72 -187 -365 -187 -373 0 -3 49 -5 110 -5 l110 0
142 213 c79 116 145 215 146 220 2 4 -62 7 -141 7 l-145 0 -35 -62z"/>
<path d="M22161 1980 c-186 -26 -350 -107 -478 -237 -109 -111 -182 -247 -230
-433 -34 -129 -43 -378 -19 -524 54 -325 211 -558 461 -682 133 -65 219 -84
390 -84 173 0 258 19 393 86 265 133 432 409 464 767 21 231 -13 457 -98 636
-105 224 -306 393 -535 450 -91 23 -259 33 -348 21z m262 -275 c91 -24 176
-72 242 -139 75 -74 125 -162 161 -281 26 -85 28 -101 28 -285 0 -184 -2 -200
-28 -285 -84 -276 -281 -435 -538 -435 -163 0 -275 45 -383 154 -81 81 -132
170 -167 291 -20 71 -23 101 -23 275 0 174 3 204 23 275 35 121 86 210 167
291 107 107 216 152 375 153 47 1 112 -6 143 -14z"/>
<path d="M24253 1980 c-160 -20 -317 -95 -414 -196 -109 -115 -144 -208 -137
-368 7 -144 30 -201 123 -292 111 -110 198 -148 560 -248 231 -64 325 -113
373 -195 54 -93 28 -227 -60 -306 -167 -151 -516 -150 -673 2 -42 41 -85 124
-85 166 l0 27 -148 0 -149 0 8 -57 c26 -189 137 -338 312 -422 137 -65 195
-76 407 -75 172 0 191 2 275 28 119 36 207 86 281 160 109 109 150 226 142
403 -4 89 -9 110 -36 166 -41 83 -97 145 -181 201 -91 61 -186 97 -404 156
-259 69 -313 91 -382 152 -53 46 -75 96 -75 170 0 76 23 129 76 180 166 158
545 129 658 -51 14 -21 29 -57 36 -80 l11 -41 139 0 c106 0 140 3 140 13 0 6
-7 42 -15 80 -41 193 -208 349 -437 407 -93 23 -247 32 -345 20z"/>
<path d="M29095 1980 c-297 -42 -514 -199 -645 -466 -104 -213 -134 -511 -78
-789 61 -308 253 -552 515 -653 109 -42 189 -56 328 -55 406 0 712 245 822
658 25 94 27 113 27 325 0 213 -1 230 -27 325 -91 339 -317 569 -627 639 -83
19 -238 27 -315 16z m237 -271 c213 -44 367 -212 430 -467 31 -124 31 -360 0
-484 -76 -307 -273 -478 -554 -478 -272 0 -470 168 -550 465 -31 116 -31 393
0 510 62 233 203 391 397 446 70 20 200 24 277 8z"/>
<path d="M36715 1980 c-258 -36 -454 -159 -590 -369 -124 -191 -180 -457 -155
-731 25 -272 107 -465 265 -626 134 -136 289 -210 489 -234 358 -43 687 125
846 432 95 182 125 334 117 596 -6 214 -30 323 -106 477 -140 283 -388 443
-710 459 -53 3 -123 1 -156 -4z m253 -275 c210 -50 365 -226 417 -476 50 -236
17 -510 -82 -679 -103 -175 -270 -270 -475 -270 -202 0 -368 95 -471 270 -140
240 -140 660 0 900 73 125 185 213 318 251 75 22 209 24 293 4z"/>
<path d="M38948 1980 c-358 -45 -623 -301 -714 -689 -39 -169 -36 -430 6 -609
65 -272 235 -488 467 -593 115 -53 221 -73 378 -72 169 1 255 20 395 89 78 39
109 62 175 128 93 94 136 163 175 278 34 100 50 221 50 386 l0 122 -380 0
-380 0 0 -120 0 -120 240 0 240 0 -6 -47 c-16 -131 -62 -232 -143 -313 -95
-95 -215 -140 -374 -140 -162 0 -275 46 -388 159 -88 89 -137 178 -170 316
-29 115 -31 358 -5 473 69 311 276 493 557 491 217 -1 366 -93 461 -285 l41
-84 144 0 c163 0 155 -5 127 91 -93 312 -378 524 -729 542 -55 3 -130 2 -167
-3z"/>
<path d="M41918 1980 c-162 -20 -297 -81 -402 -180 -122 -116 -160 -214 -154
-389 3 -96 6 -113 36 -173 42 -85 131 -170 238 -225 80 -42 166 -71 424 -143
299 -84 385 -151 384 -300 -1 -54 -7 -77 -30 -120 -80 -148 -298 -220 -521
-174 -161 33 -255 110 -287 237 l-13 52 -146 3 -147 3 6 -33 c28 -167 62 -237
160 -336 89 -89 196 -144 343 -174 130 -27 367 -21 481 12 209 60 352 180 412
347 32 88 37 241 9 331 -40 133 -137 233 -301 311 -77 37 -134 55 -435 137
-194 53 -302 132 -324 236 -35 161 90 298 299 328 185 26 368 -39 436 -155 15
-26 30 -61 33 -78 l7 -32 142 -3 142 -3 -7 48 c-29 219 -198 390 -445 453 -92
23 -246 32 -340 20z"/>
<path d="M46865 1984 c-115 -17 -169 -29 -238 -56 -193 -74 -357 -234 -449
-435 -101 -224 -123 -568 -53 -831 86 -322 298 -542 600 -623 104 -28 315 -31
420 -6 310 74 531 296 590 594 l7 33 -145 0 -145 0 -22 -65 c-42 -128 -148
-232 -288 -286 -71 -27 -231 -37 -315 -19 -158 32 -295 144 -371 302 -53 110
-74 201 -82 346 -27 468 206 781 580 782 224 0 418 -129 476 -319 l18 -56 147
-3 147 -3 -7 33 c-76 363 -357 594 -744 612 -53 2 -109 2 -126 0z"/>
<path d="M31973 1966 c-207 -51 -342 -222 -343 -436 0 -126 49 -248 154 -387
l55 -71 -72 -53 c-221 -163 -310 -319 -293 -514 15 -183 118 -336 285 -419
106 -54 184 -70 336 -69 111 0 143 4 218 27 105 31 177 66 234 112 l42 34 63
-75 63 -74 159 -1 c149 0 158 1 145 17 -8 10 -69 84 -136 165 l-122 146 20 26
c31 40 95 184 113 256 9 36 19 109 23 163 l6 97 -125 0 -125 0 -7 -67 c-10
-99 -57 -263 -75 -263 -10 0 -376 438 -376 450 0 5 41 39 90 76 218 164 296
301 282 491 -7 95 -41 167 -112 242 -91 96 -210 142 -365 140 -47 0 -108 -6
-137 -13z m260 -249 c21 -12 51 -41 67 -66 25 -36 30 -55 30 -103 0 -32 -6
-74 -14 -93 -19 -45 -83 -107 -184 -177 l-81 -57 -35 42 c-98 120 -137 225
-115 313 16 62 95 146 154 162 53 15 131 6 178 -21z m-14 -1091 l213 -250 -24
-18 c-44 -34 -158 -87 -215 -98 -83 -18 -188 -8 -254 22 -72 33 -119 75 -154
140 -24 43 -30 65 -30 118 0 77 24 133 88 206 43 49 147 136 158 131 3 -1 102
-114 218 -251z"/>
<path d="M15660 1000 l0 -960 363 0 c390 0 479 8 612 53 257 88 434 273 518
542 40 126 50 226 44 418 -4 142 -9 189 -31 272 -92 351 -343 575 -700 624
-44 6 -235 11 -442 11 l-364 0 0 -960z m819 686 c219 -56 363 -211 418 -451
27 -118 24 -379 -6 -490 -33 -126 -75 -201 -155 -280 -138 -137 -230 -165
-558 -172 l-228 -5 0 712 0 712 233 -5 c168 -4 250 -9 296 -21z"/>
<path d="M17780 1000 l0 -960 605 0 605 0 0 125 0 125 -460 0 -460 0 0 295 0
295 425 0 425 0 0 125 0 125 -425 0 -425 0 0 290 0 290 455 0 455 0 0 125 0
125 -600 0 -600 0 0 -960z"/>
<path d="M19580 1001 l0 -961 145 0 145 0 0 334 0 333 263 6 c300 7 361 16
484 77 238 118 359 400 297 698 -46 225 -192 381 -420 448 -51 15 -117 18
-486 21 l-428 4 0 -960z m840 685 c149 -63 214 -169 214 -351 -1 -130 -25
-198 -98 -271 -89 -88 -125 -97 -418 -102 l-248 -4 0 377 0 377 253 -4 c219
-3 258 -6 297 -22z"/>
<path d="M25630 1000 l0 -960 145 0 145 0 0 960 0 960 -145 0 -145 0 0 -960z"/>
<path d="M26460 1835 l0 -125 300 0 300 0 0 -835 0 -835 145 0 145 0 0 835 0
835 300 0 300 0 0 125 0 125 -745 0 -745 0 0 -125z"/>
<path d="M34400 1000 l0 -960 580 0 580 0 0 125 0 125 -435 0 -435 0 0 835 0
835 -145 0 -145 0 0 -960z"/>
<path d="M40460 1000 l0 -960 145 0 145 0 0 960 0 960 -145 0 -145 0 0 -960z"/>
<path d="M43200 1835 l0 -125 295 0 295 0 0 -835 0 -835 145 0 145 0 0 835 0
835 300 0 300 0 0 125 0 125 -740 0 -740 0 0 -125z"/>
<path d="M45220 1000 l0 -960 145 0 145 0 0 960 0 960 -145 0 -145 0 0 -960z"/>
<path d="M48756 1748 c-42 -117 -197 -548 -344 -958 l-268 -745 149 -3 c82 -1
152 0 154 2 3 3 43 113 89 246 46 133 86 246 89 251 4 5 160 9 378 9 l372 0
85 -245 c46 -135 87 -250 90 -256 4 -6 65 -8 157 -7 l150 3 -248 690 c-137
380 -292 810 -345 958 l-96 267 -168 0 -167 0 -77 -212z m277 -210 c37 -102
257 -740 257 -744 0 -2 -131 -4 -291 -4 -229 0 -290 3 -286 13 12 32 277 799
277 803 0 2 4 4 9 4 4 0 20 -33 34 -72z"/>
</g>
</svg>
